<svg width="140" height="100" viewBox="0 0 140 100" fill="none" xmlns="http://www.w3.org/2000/svg">
<g clip-path="url(#clip0_107_1067)">
<g clip-path="url(#clip1_107_1067)">
<path d="M96.0354 97.6021C43.1216 101.857 50.3144 71.8218 36.534 65.1274C12.4273 72.2491 -1.22847 57.8633 2.546 47.8396C8.06527 33.0266 37.6023 44.0652 37.6023 44.0652C51.5073 7.7626 71.252 1.92285 87.3114 1.92285C139.602 4.54005 125.661 55.531 100.682 60.4805C106.558 66.4449 107.804 83.7505 137.145 81.5428" stroke="#CACAAE" stroke-width="3.86349" stroke-miterlimit="10" stroke-linecap="round"/>
<path d="M33.685 16.9852C35.0559 40.7715 36.0351 68.3678 27.3289 90.8722C26.4565 93.1333 33.3645 93.1867 34.1835 91.0858C43.0322 68.2432 42.1064 40.451 40.7176 16.3086C40.593 14.0831 33.5604 14.635 33.7028 16.9852H33.685Z" fill="black"/>
<path d="M79.1567 16.9495C80.8303 38.1898 82.2903 63.0266 74.0113 83.074C73.4594 84.4093 80.1716 84.5695 80.8303 82.985C89.2161 62.6705 87.8629 37.7981 86.1716 16.273C86.0469 14.7952 79.0321 15.3828 79.1567 16.9495Z" fill="black"/>
<path d="M85.8691 87.5962C71.2163 88.344 63.7208 81.1155 56.0828 69.7921C50.2609 61.1571 44.3143 56.5103 35.341 51.3115C28.8781 47.5726 19.1215 42.5875 11.5369 46.1839C7.17493 48.2492 5.91084 52.6112 9.09777 56.4034C14.0473 62.2966 24.2847 61.8337 30.979 60.5874C35.9998 59.6616 39.7386 58.718 43.068 54.8367C46.6822 50.6171 49.4241 45.6854 52.2015 40.8961C58.611 29.8219 65.8038 16.2196 79.2459 12.7656C92.688 9.31159 113.02 18.9792 110.047 35.4836C107.074 51.988 88.0946 56.35 74.332 57.2937C73.3172 57.3649 58.9493 57.1868 61.2104 53.0563C63.3291 49.1928 78.1243 59.4836 79.6376 60.5696C81.7029 62.0473 87.5961 59.626 84.872 57.0978L84.7652 56.991C82.5397 54.9257 76.0946 57.4005 78.9433 60.0177C81.97 62.8129 85.7978 63.899 88.6643 67.3174C92.2073 71.5547 95.0382 76.344 98.6346 80.5458C106.593 89.7861 116.777 93.436 128.848 92.5992C133.21 92.2965 132.712 87.436 128.385 87.7387C114.694 88.6823 106.949 81.2402 99.4714 70.9672C97.2815 67.9583 95.1984 64.807 92.5812 62.1364C90.4091 59.9109 86.421 58.5221 84.7474 56.9732C82.5219 54.9079 76.0768 57.3827 78.9255 59.9999L79.0323 60.1067L84.2667 56.6349C77.9106 52.1127 64.8958 43.6201 56.7416 49.442C50.8662 53.626 56.1718 59.0206 61.068 60.8189C72.2667 64.9316 88.8602 61.4064 99.2578 56.4391C108.587 51.988 117.026 43.4065 117.347 32.5281C117.667 21.6498 109.424 13.3175 99.8097 9.66767C85.7088 4.32644 70.5753 7.74483 60.1243 18.4273C50.4923 28.273 46.8603 42.7121 37.3173 52.3085C33.2401 56.4034 22.2906 58.3619 16.9494 54.9435C12.4271 52.0592 14.3856 49.5311 19.1749 50.2788C34.7713 52.7536 44.5635 65.1809 53.0027 76.9494C61.3528 88.5933 72.0887 93.1689 86.3676 92.4389C90.7296 92.2075 90.2311 87.3648 85.9047 87.5784L85.8691 87.5962Z" fill="black"/>
</g>
</g>
<defs>
<clipPath id="clip0_107_1067">
<rect width="139.05" height="99.9344" fill="white"/>
</clipPath>
<clipPath id="clip1_107_1067">
<rect width="139.05" height="99.9344" fill="white"/>
</clipPath>
</defs>
</svg>
